# xmcd
#
# Track frame offsets: 
#        150
#        15025
#        36340
#        53306
#        76578
#        98717
#        122789
#        141934
#        160123
#        179779
#
# Disc length: 2710 seconds
#
# Revision: 0
# Processed by: cddbd v1.5.2PL0 Copyright (c) Steve Scherf et al.
# Submitted via: ExactAudioCopy v1.0b3
#
DISCID=6f0a940a
DTITLE=Mong Thi - Lan Dau Noi Doi
DYEAR=1999
DGENRE=
TTITLE0=Lan dau noi doi
TTITLE1=Chuyen yeu duong
TTITLE2=Tinh co
TTITLE3=Tuoi doi muoi
TTITLE4=Gia tu di vang
TTITLE5=Tinh nong
TTITLE6=Dong song lo dang
TTITLE7=Ben mong
TTITLE8=Chiec la mua dong
TTITLE9=Van hat loi tinh yeu
EXTD=
EXTT0=
EXTT1=
EXTT2=
EXTT3=
EXTT4=
EXTT5=
EXTT6=
EXTT7=
EXTT8=
EXTT9=
PLAYORDER=
